<svg width="32" height="32" fill="none" xmlns="http://www.w3.org/2000/svg">
  <path fill-rule="evenodd" clip-rule="evenodd" d="M24.2 23.23c-2.33 2.52-4.7 3.24-6.06 3.44a8.9 8.9 0 0 1 2.54-6.63 10.84 10.84 0 0 1 6.22-3.35 11.25 11.25 0 0 1-2.7 6.54Zm-10.34 3.44a10.3 10.3 0 0 1-6.05-3.44 11.25 11.25 0 0 1-2.71-6.54c1.52.24 4 1 6.22 3.35a8.9 8.9 0 0 1 2.54 6.63Zm1.89-23.44a1.52 1.52 0 0 1-1.63 2.58s-.92-.58-1.88-.8a1.53 1.53 0 0 1 .7-2.97 9.76 9.76 0 0 1 2.8 1.2Zm0 5.18c-.14-.1-2.05-1.57-4.08-2.33-2.07-.85-3.92-1.1-4.11-1.13h-.01a1.53 1.53 0 0 0-.54 3c.08.01 1.9.35 3.6.98.8.34 1.52.73 2.06 1.06h.01V10c.71.44 1.2.82 1.21.82a1.52 1.52 0 1 0 1.86-2.4V8.4Zm.6 5.94a1.52 1.52 0 0 1-2.47 1.78l.01.02a14.59 14.59 0 0 0-4.45-2.86C6.54 12 4.4 11.84 4.39 11.83a1.53 1.53 0 0 1 .4-3.02c.11.02 2.6.21 5.92 1.7 3.81 1.7 5.5 3.65 5.64 3.84Zm13.63.6a1.52 1.52 0 0 0-1.4-1.4c-.23-.02-5.63-.35-10.1 4.4A12.41 12.41 0 0 0 16 21.71a12.5 12.5 0 0 0-2.47-3.78 13.49 13.49 0 0 0-10.1-4.4c-.76.06-1.35.66-1.41 1.4C2 15.2 1.6 21 5.57 25.3c4.57 4.95 9.13 4.7 10.47 4.7 1.34 0 5.82.25 10.39-4.7 3.97-4.31 3.57-10.1 3.55-10.35Z" fill="#E85222"/>
</svg>
