<svg width="24" height="31" fill="none" xmlns="http://www.w3.org/2000/svg"><path d="M2.4 8.499 6.271 5.87 8.16 7.09l3.656-2.485 3.632 2.485 1.864-1.219 3.8 2.629v14.385c.126 2.901-4.534 7.288-9.415 7.432-4.368.129-9.01-3.595-9.01-7.432L2.42 9.478l-.02-.98z" fill="#fff"/><path d="m2.529 9.478.267 13.406c0 3.837 4.641 7.56 9.009 7.432 4.881-.144 9.54-4.531 9.415-7.432V9.478m-18.691 0-.02-.98L6.38 5.87 8.268 7.09l3.656-2.485 3.632 2.485L17.42 5.87l3.8 2.629v.98m-18.691 0h18.69" stroke="#000" stroke-width=".348"/><path d="m5.269 2.358.33.622.693.12-.49.506.099.697-.632-.31-.632.31.1-.697-.49-.505.693-.121.329-.622zM1.888 3.887l.33.622.692.121-.49.505.1.697-.632-.31-.632.31.099-.697-.49-.505.694-.121.329-.622zM8.65.9l.33.622.693.121-.49.505.1.697-.633-.31-.632.31.1-.697-.49-.505.693-.121L8.65.9zM11.981.207l.33.622.693.121-.49.506.1.696-.633-.31-.632.31.1-.696-.49-.506.693-.12.33-.623zM15.35.9l.329.622.693.121-.49.505.1.697-.632-.31-.632.31.099-.697-.49-.505.693-.121.33-.622zM18.73 2.358l.33.622.693.12-.49.506.1.697-.632-.31-.632.31.099-.697-.49-.505.693-.121.33-.622zM22.112 3.887l.33.622.693.121-.49.505.099.697-.632-.31-.632.31.1-.697-.49-.505.693-.121.329-.622z" fill="#FC0"/><path d="M11.757 9.622H2.652l.154 8.735.082 3.105.07 2.146.331 1.315.625 1.186 1.156 1.303 1.356 1.103 1.557 1.043 2.028.592 1.746.19V9.622z" fill="#E30613"/><path fill="#000" d="M6.852 12.095h.185v.597h-.185zM16.425 12.095h.185v.597h-.185z"/><path fill-rule="evenodd" clip-rule="evenodd" d="M11.757 19.863v-2.291h.508v-.705h.846v.705h.751v-.705h.658v.705h.447v-2.255h-.447v-1.034h.4l1.562-1.762 1.785 1.762h.341v1.034h-.446l.329 5.99h.305l.125.874.11.77h-4.722l-.165-.445h-.658v.446h-.869v-2.349s0-.246-.157-.454a.718.718 0 0 0-.49-.274 1.19 1.19 0 0 0-.213-.012zm4.725-7.718v-.822h1.445l-.476.475.393.394-1.362-.047z" fill="#E30613"/><path fill-rule="evenodd" clip-rule="evenodd" d="M11.757 17.572v2.291h-.011a.968.968 0 0 0-.112.012.65.65 0 0 0-.43.25.858.858 0 0 0-.157.415c-.004.039-.004.063-.004.063v2.349h-.87v-.282h-.727v.282H4.7l.094-.822.094-.823h.282l.282-5.99h-.4v-1.034h.588l1.292-1.692 1.55 1.692h.494v1.034h-.494l.07 2.255h.424v-.705h.752v.705h.845v-.705h.823v.705h.36zm-4.825-5.513v-.736h1.41l-.447.329.446.376-1.41.031zm-.435 4.485a.54.54 0 0 1 1.081 0v1.586h-1.08v-1.586z" fill="#fff"/><path d="M18.608 15.317v.1h.1v-.1h-.1zm0-1.034h.1v-.1h-.1v.1zm-.34 0-.07.07.029.03h.04v-.1zm-1.786-1.762.07-.071-.075-.074-.07.079.075.066zm-1.562 1.762v.1h.044l.03-.034-.074-.066zm-.4 0v-.1h-.1v.1h.1zm0 1.034h-.1v.1h.1v-.1zm.447 0h.1v-.1h-.1v.1zm0 2.255v.1h.1v-.1h-.1zm-.447 0h-.1v.1h.1v-.1zm0-.705h.1v-.1h-.1v.1zm-.658 0v-.1h-.1v.1h.1zm0 .705v.1h.1v-.1h-.1zm-.751 0h-.1v.1h.1v-.1zm0-.705h.1v-.1h-.1v.1zm-.846 0v-.1h-.1v.1h.1zm0 .705v.1h.1v-.1h-.1zm-.87 0h-.099v.1h.1v-.1zm0-.705h.1v-.1h-.1v.1zm-.822 0v-.1h-.1v.1h.1zm0 .705v.1h.1v-.1h-.1zm-.845 0h-.1v.1h.1v-.1zm0-.705h.1v-.1h-.1v.1zm-.752 0v-.1h-.1v.1h.1zm0 .705v.1h.1v-.1h-.1zm-.423 0-.1.003.003.096h.097v-.1zm-.07-2.255v-.1H8.38l.003.103.1-.003zm.493 0v.1h.1v-.1h-.1zm0-1.034h.1v-.1h-.1v.1zm-.494 0-.073.067.03.032h.043v-.1zm-1.55-1.692.073-.067-.08-.087-.072.094.079.06zM5.64 14.283v.1h.049l.03-.04-.08-.06zm-.588 0v-.1h-.1v.1h.1zm0 1.034h-.1v.1h.1v-.1zm.4 0 .1.004.004-.104h-.104v.1zm-.282 5.99v.1h.095l.004-.095-.1-.005zm-.282 0v-.1h-.089l-.01.09.099.01zM4.7 22.952l-.099-.011-.013.11H4.7v-.1zm4.746 0v.1h.1v-.1h-.1zm0-.282v-.1h-.1v.1h.1zm.728 0h.1v-.1h-.1v.1zm0 .282h-.1v.1h.1v-.1zm.87 0v.1h.099v-.1h-.1zm0-2.35h.099-.1zm.003-.062-.099-.011.1.01zm.157-.416-.08-.06.08.06zm.43-.25.016.1-.016-.1zm.112-.01.004.099-.004-.1zm.224.01-.015.1.015-.1zm.49.275-.08.06.08-.06zm.157.454h-.1.1zm0 2.349h-.1v.1h.1v-.1zm.87 0v.1h.099v-.1h-.1zm0-.447v-.099h-.1v.1h.1zm.657 0 .094-.034-.024-.065h-.07v.1zm.165.447-.094.034.024.065h.07v-.1zm4.722 0v.1h.115l-.017-.114-.098.014zm-.11-.771-.099.014.099-.014zm-.125-.874.099-.014-.013-.085h-.086v.1zm-.305 0-.1.006.005.094h.095v-.1zm-.33-5.99v-.1h-.105l.006.105.1-.005zm-11.23-3.258h-.099v.102l.102-.002-.002-.1zm0-.736v-.1h-.099v.1h.1zm1.41.704.003.1.263-.006-.201-.17-.065.076zm-.446-.375-.059-.08-.102.074.097.082.064-.076zm.446-.33.06.08.243-.179h-.303v.1zm8.14.823h-.099v.096l.096.003.004-.099zm0-.822v-.1h-.099v.1h.1zm1.363.869-.003.1.252.008-.178-.178-.07.07zm-.393-.394-.07-.07-.07.07.07.07.07-.07zm.476-.475.07.07.17-.17h-.24v.1zM6.497 18.13h-.1v.1h.1v-.1zm1.081 0v.1h.1v-.1h-.1zm7.577-3.847h.099v-.1h-.1v.1zm0 .54h-.1v.1h.1v-.1zm.328 0v.1h.1v-.1h-.1zm0-.54v-.1h-.1v.1h.1zm.893 0h.1v-.1h-.1v.1zm0 .54h-.1v.1h.1v-.1zm.376 0v.1h.1v-.1h-.1zm0-.54v-.1h-.1v.1h.1zm.775 0h.1v-.1h-.1v.1zm0 .54h-.1v.1h.1v-.1zm.4 0v.1h.1v-.1h-.1zm0-.54v-.1h-.1v.1h.1zm-8.78 7.847.088-.048-.088.048zm5.118.05-.093-.034.093.035zM5.64 14.824h-.1v.1h.1v-.1zm.634 0v.1h.1v-.1h-.1zm0-.54v-.1h-.1v.1h.1zm.517 0h.1v-.1h-.1v.1zm0 .54h-.1v.1h.1v-.1zm.4 0v.1h.099v-.1h-.1zm0-.54v-.1h-.1v.1h.1zm.822 0h.099v-.1h-.1v.1zm0 .54h-.1v.1h.1v-.1zm.47 0v.1h.099v-.1h-.1zm1.993 4.642-.05-.086.05.086zm.567-.328-.05-.086.05.086zm.188-.108.05.086.05-.03v-.056h-.1zm2.075.509.05-.087-.004-.002-.046.088zm-.977-.51h-.1v.06l.054.029.046-.088zm1.157 3.478v.099h.1v-.1h-.1zm5.023-8.035v.846h.198v-.846h-.198zm0-.188v.188h.198v-.188h-.198zm-.242.1h.341v-.2h-.34v.2zm-1.855-1.791 1.786 1.762.14-.142-1.786-1.762-.14.142zm-1.418 1.757 1.562-1.762-.149-.132-1.562 1.762.149.132zm-.474.033h.4v-.199h-.4v.2zm.1.935v-1.034h-.2v1.034h.2zm.347-.1h-.447v.2h.447v-.2zm.1 2.355v-2.255h-.2v2.255h.2zm-.547.1h.447v-.2h-.447v.2zm-.1-.805v.705h.2v-.705h-.2zm-.558.1h.658v-.2h-.658v.2zm.1.605v-.705h-.2v.705h.2zm-.851.1h.751v-.2h-.751v.2zm-.1-.805v.705h.2v-.705h-.2zm-.746.1h.846v-.2h-.846v.2zm.1.605v-.705h-.2v.705h.2zm-.97.1h.87v-.2h-.87v.2zm-.099-.805v.705h.2v-.705h-.2zm-.723.1h.823v-.2h-.823v.2zm.1.605v-.705h-.2v.705h.2zm-.945.1h.845v-.2h-.845v.2zm-.1-.805v.705h.199v-.705h-.199zm-.652.1h.752v-.2h-.752v.2zm.1.605v-.705h-.2v.705h.2zm-.523.1h.423v-.2h-.423v.2zm-.17-2.352.07 2.255.2-.006-.071-2.255-.2.006zm.593-.103h-.494v.2h.494v-.2zm-.1-.934v1.034h.2v-1.034h-.2zm-.394.1h.494v-.2h-.494v.2zm-1.624-1.724L8.41 14.35l.147-.134-1.55-1.692-.148.135zm-1.14 1.684 1.293-1.691-.158-.121-1.292 1.691.158.121zm-.666.04h.588v-.2h-.588v.2zm.1.934v-1.034h-.2v1.034h.2zm.3-.1h-.4v.2h.4v-.2zm-.183 6.095.282-5.99-.199-.01-.282 5.99.2.01zm-.381.095h.282v-.2h-.282v.2zm.005.734.094-.822-.198-.023-.094.822.198.023zm-.094.822.094-.822-.198-.023-.094.823.198.022zm4.647-.11H4.7v.198h4.746v-.199zm-.1-.183v.282h.2v-.282h-.2zm.828-.1h-.728v.2h.728v-.2zm.1.382v-.282h-.2v.282h.2zm.77-.1h-.87v.2h.87v-.2zm-.1-.605v.705h.199v-.705h-.2zm0-.599v.6h.199v-.6h-.2zm0-.67v.67h.199v-.67h-.2zm0-.375v.375h.199v-.375h-.2zm.004-.074a.836.836 0 0 0-.004.052v.021h.199v-.012l.003-.04-.198-.021zm.176-.465a.956.956 0 0 0-.176.465l.198.021a.757.757 0 0 1 .137-.366l-.159-.12zm.494-.287a.749.749 0 0 0-.494.287l.16.12a.55.55 0 0 1 .366-.21l-.032-.197zm.123-.013a1.043 1.043 0 0 0-.123.013l.032.196a.872.872 0 0 1 .1-.01l-.009-.199zm.054-.001-.054.001.01.199.044-.001v-.199zm.19.013a1.284 1.284 0 0 0-.19-.013v.199c.058 0 .112.004.16.011l.03-.197zm.555.313a.818.818 0 0 0-.555-.313l-.03.197a.62.62 0 0 1 .426.236l.159-.12zm.077.514h.1v-.015a.937.937 0 0 0-.177-.498l-.16.119a.7.7 0 0 1 .137.387v.006h.1zm.1.064v-.064h-.2v.064h.2zm0 .529v-.529h-.2v.529h.2zm0 .646v-.646h-.2v.646h.2zm0 .664v-.664h-.2v.664h.2zm0 .446v-.447h-.2v.447h.2zm.77-.1h-.87v.2h.87v-.2zm-.1-.346v.446h.199v-.447h-.2zm.757-.1h-.658v.199h.658v-.199zm.258.512-.164-.447-.187.069.164.446.187-.069zm4.629-.066h-4.722v.2h4.722v-.2zm-.209-.657.11.771.197-.028-.11-.771-.197.028zm-.125-.874.125.874.197-.028-.124-.874-.198.028zm-.206.086h.305v-.2h-.305v.2zm-.429-6.085.33 5.99.198-.01-.329-5.99-.199.01zm.546-.105h-.446v.2h.446v-.2zM7.031 12.059v-.736h-.199v.736h.2zm1.308-.131-1.41.032.005.199 1.41-.032-.005-.199zm-.508-.2.446.376.129-.153-.447-.376-.128.153zm.451-.485-.446.329.118.16.446-.33-.118-.16zm-1.35.18h1.41v-.2h-1.41v.2zm9.65.722v-.822h-.2v.822h.2zm1.266-.053-1.363-.046-.007.198 1.363.047.007-.199zm-.467-.223.393.393.14-.14-.393-.394-.14.14zm.475-.617-.475.476.14.14.476-.475-.14-.14zm-1.374.17h1.445v-.199h-1.445v.2zm-9.885 5.122a.44.44 0 0 1 .44-.44v-.2a.64.64 0 0 0-.64.64h.2zm0 1.586v-1.586h-.2v1.586h.2zm.981-.1h-1.08v.2h1.08v-.2zm-.1-1.486v1.586h.2v-1.586h-.2zm-.44-.44a.44.44 0 0 1 .44.44h.2a.64.64 0 0 0-.64-.64v.2zm8.017-1.821v.54h.199v-.54h-.199zm.1.64h.328v-.2h-.329v.2zm.428-.1v-.54h-.2v.54h.2zm-.1-.44h.893v-.2h-.893v.2zm.794-.1v.54h.199v-.54h-.2zm.1.64h.375v-.2h-.376v.2zm.475-.1v-.54h-.2v.54h.2zm-.1-.44h.775v-.2h-.775v.2zm.676-.1v.54h.199v-.54h-.2zm.1.64h.399v-.2h-.4v.2zm.498-.1v-.54h-.199v.54h.2zm-3.106-.44h.235v-.2h-.235v.2zm3.007 0h.34v-.2h-.34v.2zm-9.32 6.972.453.823.175-.096-.454-.823-.174.096zm.453.823.298.54.175-.096-.298-.54-.175.096zm-3.89-.771h1.104v-.2H5.17v.2zm1.004-.1v.705h.2v-.705h-.2zm.1.1h1.527v-.2H6.274v.2zm1.527 0h.893v-.2H7.8v.2zm-3.007.822H7.8v-.199H4.794v.2zm3.007 0h1.346v-.199H7.801v.2zm-.1-.922v.823h.2v-.823h-.2zm6.537 1.233.12-.324-.186-.07-.121.325.187.07zm.12-.324.326-.874-.187-.07-.325.874.186.07zm3.028-.81h1.105v-.198h-1.105v.199zm0 .874h1.535v-.199h-1.535v.2zm-.1-.973v.874h.2v-.874h-.2zm-2.695.1h1.221v-.2h-1.221v.2zm1.221 0h1.574v-.2h-1.574v.2zm-1.547.873h1.56v-.199h-1.56v.2zm1.56 0h1.561v-.199h-1.56v.2zm-.112-.971.013.873.2-.003-.014-.873-.2.003zM5.54 14.283v.54h.2v-.54h-.2zm.1.64h.634v-.2H5.64v.2zm.734-.1v-.54h-.2v.54h.2zm-.1-.44h.517v-.2h-.517v.2zm.417-.1v.54h.2v-.54h-.2zm.1.64h.4v-.2h-.4v.2zm.499-.1v-.54h-.2v.54h.2zm-.1-.44h.823v-.2H7.19v.2zm.723-.1v.54h.199v-.54h-.199zm.1.64h.47v-.2h-.47v.2zm.569-.1v-.54h-.2v.54h.2zm-3.13.593h3.03v-.199h-3.03v.2zm9.514 0h3.196v-.199h-3.195v.2zm-6.173 5.888-.124-3.288-.199.007.124 3.288.2-.007zm-.124-3.288-.017-.448-.199.008.017.447.2-.007zm6.02 3.301.332-3.288-.199-.02-.33 3.288.198.02zm.332-3.288.045-.447-.199-.02-.045.447.199.02zm-6.451.09h2.661v-.2H8.57v.2zm2.661 0h.515v-.2h-.515v.2zm.515 0h.583v-.2h-.583v.2zm.583 0h2.592v-.2H12.33v.2zm-2.056 4.551v-.423h-.199v.423h.2zm-.1-.323h.87v-.2h-.87v.2zm.1-.1v-.599h-.199v.6h.2zm-.1-.5h.87v-.198h-.87v.198zm.1-.099v-.67h-.199v.67h.2zm-.1-.57h.87v-.2h-.87v.2zm.1-.1v-.563h-.199v.564h.2zm0-.563v-.427h-.199v.427h.2zm-.113.098.873.125.028-.197-.873-.125-.028.197zm.25-.974.727.659.134-.148-.728-.659-.134.148zm.116.012.567-.328-.1-.172-.567.328.1.172zm.567-.328.188-.108-.1-.173-.188.109.1.172zm-.127-.024.59.738.156-.124-.591-.738-.155.124zm.365-.17v-.335h-.2v.335h.2zm0-.335v-.675h-.2v.675h.2zm.315-.675v.675h.2v-.675h-.2zm0 .675v1.17h.2v-1.17h-.2zm-.415.1h.515v-.2h-.515v.2zm1.313.32-.647.693.146.136.647-.694-.146-.136zm.808.335-.977-.509-.092.177.977.509.092-.177zm-.104.008-.846.611.117.162.846-.612-.117-.161zm.338.958v-.569h-.2v.569h.2zm-.127-.096-.87.253.056.19.87-.252-.056-.191zm.127.771v-.675h-.2v.675h.2zm-.112-.099-.869.106.024.198.87-.106-.025-.198zm.112 1.515v-.708h-.2v.708h.2zm0-.708v-.708h-.2v.708h.2zm-.105-.1-.869.044.01.2.87-.045-.01-.199zm.005.708h-.869v.199h.87v-.199zm-1.057-3.377v-.335h-.2v.335h.2zm0-.335v-.675h-.2v.675h.2zm-.683.1h.583v-.2h-.583v.2zm1.511.83c.08.045.13.13.13.222h.199a.454.454 0 0 0-.23-.395l-.099.173zm-2.984.364c0-.18.097-.347.253-.437l-.1-.172a.704.704 0 0 0-.352.61h.2z" fill="#000"/><path d="M16.077 16.544a.44.44 0 1 1 .881 0v1.486h-.881v-1.486z" stroke="#000" stroke-width=".199"/><path fill-rule="evenodd" clip-rule="evenodd" d="M12.274 25.942c-.23-.312-.535-.13-.659 0h-.281c.277-.202.288-.444.281-.791-.11-.618-.461-.726-.863-.726-.401 0-.845.222-.845.791 0 .312.018.433.264.642-.785-.315-1.21.131-1.21.533 0 .237.041.8.668.8h.079c.185.003.263.004.41-.165-.203.29-.26.574-.21.737.153.503.38.707.862.707.578-.07.806-.2.863-.755.033-.318-.019-.457-.221-.77h.203c.066.237.66.204.66 0h.865v.153h-.344v.369h.344v.174h-.344v.67h.395v-.314h.168v.315h.378v-.672h-.285v-.173h.285V27.2h.191v.267h.267v.174h-.297v.67h.402v-.314h.159v.315h.386v-.672h-.308v-.173h.308v-.369h-.308v-.123H15v-.443h-2.727v-.141h2.727v-.45h-2.727zm-.67.425c-.567-.042-.645-.181-.522-.623.32-.637.165-.94-.306-.94-.47 0-.635.359-.272.982.108.278.024.659-.333.497-.531-.306-.839-.24-.839.162.027.337.159.404.606.3.472-.155.754.113.53.425-.366.51-.249.935.338.935.617 0 .415-.524.3-.82a2.152 2.152 0 0 1-.042-.115s-.051-.256.014-.385c.057-.113.107-.151.21-.17.12-.02.316.01.316.01v-.258z" fill="#F9C615"/><path d="M11.615 25.942v.03h.014l.009-.009-.023-.021zm.66 0-.026.018.01.013h.015v-.031zm-.941 0-.019-.026-.077.057h.096v-.031zm.281-.791.032-.001-.001-.005-.03.006zm-1.444.707-.012.029.032-.053-.02.024zm-1.21.533h-.032.032zm.747.8v.032-.031zm.41-.165.025.018-.05-.038.024.02zm-.21.737-.03.01.03-.01zm.862.707v.032h.004l-.004-.032zm.863-.755.031.004-.03-.004zm-.221-.77v-.03h-.058l.031.047.027-.017zm.203 0 .03-.008-.006-.023h-.024v.031zm.66 0v-.03h-.032v.03h.031zm.865 0h.031v-.03h-.03v.03zm0 .153v.031h.031v-.03h-.03zm-.344 0v-.031h-.031v.031h.03zm0 .369h-.031v.03h.03v-.03zm.344 0h.031v-.031h-.03v.03zm0 .174v.03h.031v-.03h-.03zm-.344 0v-.032h-.031v.031h.03zm0 .67h-.031v.032h.03v-.031zm.395 0v.032h.031v-.031h-.03zm0-.314v-.031h-.03v.031h.03zm.168 0h.031v-.031h-.03v.031zm0 .315h-.031v.03h.031v-.03zm.378 0v.03h.03v-.03h-.03zm0-.672h.03v-.03h-.03v.03zm-.285 0h-.031v.032h.031v-.032zm0-.173v-.031h-.031v.03h.031zm.285 0v.03h.03v-.03h-.03zm0-.267v-.031h-.032v.031h.032zm.191 0h.032v-.031h-.032v.031zm0 .267h-.03v.03h.03v-.03zm.267 0h.031v-.031h-.031v.03zm0 .174v.03h.031v-.03h-.031zm-.297 0v-.032h-.03v.031h.03zm0 .67h-.03v.032h.03v-.031zm.402 0v.032h.031v-.031H14.3zm0-.314v-.031h-.031v.031h.03zm.159 0h.03v-.031h-.03v.031zm0 .315h-.031v.03h.03v-.03zm.386 0v.03h.031v-.03h-.03zm0-.672h.031v-.03h-.03v.03zm-.308 0h-.032v.032h.032v-.032zm0-.173v-.031h-.032v.03h.032zm.308 0v.03h.031v-.03h-.03zm0-.369h.031v-.031h-.03v.031zm-.308 0h-.032v.031h.032v-.03zm0-.123v-.03h-.032v.03h.032zm.464 0v.031h.031v-.03h-.031zm0-.443h.031V26.5h-.031v.03zm-2.727 0h-.03v.031h.03v-.031zm0-.141v-.031h-.03v.031h.03zm2.727 0v.031h.031v-.031h-.031zm0-.45h.031v-.03h-.031v.03zm-3.919-.197-.028-.014-.002.005.03.009zm.521.623h.032v-.029l-.03-.002-.002.031zm-1.1-.581.03-.012-.002-.004-.027.016zm-.332.497-.015.027.002.002.013-.029zm-.839.162h-.03v.003l.03-.003zm.606.3.007.03h.002l-.01-.03zm.53.425.025.018-.025-.018zm.639.116-.03.01.03-.01zm-.043-.116-.03.006v.004l.03-.01zm.014-.385-.028-.014.028.014zm.21-.17-.006-.03.005.03zm.316.01-.005.03.036.006v-.036h-.031zm.034-.662a.544.544 0 0 1 .273-.156.303.303 0 0 1 .17.014.392.392 0 0 1 .168.14l.05-.038a.453.453 0 0 0-.196-.16.364.364 0 0 0-.204-.018.605.605 0 0 0-.306.175l.045.043zm-.304.01h.281v-.063h-.281v.063zm.25-.822c.003.174.002.317-.033.441a.58.58 0 0 1-.236.324l.037.05a.642.642 0 0 0 .259-.357c.038-.134.039-.286.035-.459l-.062.001zm-.832-.694c.2 0 .38.026.523.125.143.098.255.27.31.574l.061-.01c-.056-.315-.175-.505-.335-.615-.16-.11-.356-.137-.559-.137v.063zm-.813.76c0-.276.106-.464.26-.585a.902.902 0 0 1 .553-.175v-.063a.964.964 0 0 0-.592.189c-.169.133-.284.34-.284.634h.063zm.252.617c-.121-.103-.182-.18-.215-.269-.033-.09-.037-.192-.037-.349h-.063c0 .156.004.27.042.37.037.103.108.19.233.296l.04-.048zm-1.2.557a.6.6 0 0 1 .296-.508c.195-.117.487-.151.872.004l.024-.058c-.4-.16-.713-.129-.928 0a.662.662 0 0 0-.326.562h.063zm.638.769a.658.658 0 0 1-.353-.087.518.518 0 0 1-.189-.208 1.055 1.055 0 0 1-.095-.474h-.063c0 .12.01.326.103.503.047.09.114.172.212.232a.72.72 0 0 0 .385.096v-.062zm.08 0h-.08v.062h.078l.001-.062zm.385-.154a.415.415 0 0 1-.177.138.634.634 0 0 1-.209.017v.062c.09.001.162.003.23-.02a.476.476 0 0 0 .203-.156l-.047-.041zm-.157.748a.58.58 0 0 1 .011-.304c.032-.124.096-.264.195-.406l-.051-.036c-.103.148-.17.294-.204.426a.64.64 0 0 0-.01.338l.06-.018zm.833.685c-.236 0-.406-.05-.534-.157-.13-.109-.223-.279-.299-.528l-.06.018c.078.254.176.438.319.558.143.12.329.172.574.172v-.063zm.832-.727c-.028.274-.098.435-.225.538-.128.104-.322.154-.61.19l.007.061c.289-.035.499-.086.643-.203.146-.118.218-.299.247-.58l-.062-.006zm-.217-.75c.102.157.163.266.196.375a.918.918 0 0 1 .021.375l.062.007a.98.98 0 0 0-.023-.4 1.572 1.572 0 0 0-.203-.39l-.053.033zm.23-.048h-.204v.063h.204v-.063zm.628.031c0 .034-.024.066-.076.092a.491.491 0 0 1-.198.042.528.528 0 0 1-.21-.034c-.061-.025-.1-.062-.114-.108l-.06.017c.02.072.08.12.15.149.069.029.154.04.235.039a.553.553 0 0 0 .224-.05c.061-.03.112-.078.112-.147h-.063zm.897-.03h-.866v.062h.866v-.063zm.031.183v-.153h-.062v.153h.063zm-.375.031h.344v-.062h-.344v.062zm.031.338v-.369h-.062v.369h.062zm.313-.031h-.344v.062h.344v-.063zm.031.204v-.173h-.062v.174h.063zm-.375.032h.344v-.063h-.344v.063zm.031.64v-.672h-.062v.672h.062zm.364-.032h-.395v.063h.395v-.063zm-.03-.283v.315h.062v-.315h-.063zm.198-.031h-.168v.062h.168v-.062zm.031.346v-.315h-.062v.315h.062zm.347-.032h-.378v.063h.378v-.063zm-.032-.64v.672h.063v-.672h-.063zm-.253.032h.285v-.063h-.285v.063zm-.031-.205v.174h.062v-.174h-.062zm.316-.031h-.285v.062h.285v-.063zm-.032-.236v.267h.063V27.2h-.063zm.223-.031h-.191v.062h.191v-.062zm.032.298V27.2h-.063v.267h.063zm.235-.031h-.267v.062h.267v-.063zm.031.204v-.173h-.062v.174h.062zm-.328.032h.297v-.063h-.297v.063zm.032.64v-.672h-.063v.672h.063zm.37-.032h-.402v.063h.402v-.063zm-.031-.283v.315h.062v-.315h-.062zm.19-.031h-.16v.062h.16v-.062zm.03.346v-.315h-.062v.315h.063zm.356-.032h-.386v.063h.386v-.063zm-.031-.64v.672h.062v-.672h-.062zm-.277.032h.308v-.063h-.308v.063zm-.032-.205v.174h.063v-.174h-.063zm.34-.031h-.308v.062h.308v-.063zm-.031-.338v.369h.062v-.369h-.062zm-.277.031h.308v-.062h-.308v.062zm-.032-.154v.123h.063v-.123h-.063zm.496-.03h-.464v.061H15v-.062zm-.031-.413v.443h.062v-.443h-.062zm-2.696.031h2.727v-.062h-2.727v.062zm-.03-.172v.14h.062v-.14h-.063zM15 26.36h-2.727v.062h2.727v-.062zm-.031-.418v.449h.062v-.45h-.062zm-2.696.03h2.727v-.062h-2.727v.063zm-1.222-.237c-.03.112-.05.206-.051.286a.31.31 0 0 0 .059.204.381.381 0 0 0 .197.12c.088.026.202.043.344.053l.005-.062c-.14-.01-.25-.027-.331-.052a.32.32 0 0 1-.166-.098.247.247 0 0 1-.046-.164c.001-.071.019-.16.05-.27l-.06-.017zm-.275-.9c.23 0 .368.073.42.21.052.143.016.368-.143.685l.056.028c.16-.32.207-.565.145-.734-.065-.174-.238-.252-.479-.252v.062zm-.246.935c-.18-.31-.224-.545-.174-.7.05-.15.192-.236.42-.236v-.062c-.243 0-.418.094-.479.28-.06.18-.004.436.179.75l.054-.032zm-.373.542c.094.042.174.051.24.03a.233.233 0 0 0 .142-.129c.057-.12.049-.294-.007-.438l-.058.022a.53.53 0 0 1 .009.39.172.172 0 0 1-.104.096c-.047.014-.11.01-.196-.028l-.026.057zm-.794.133c0-.097.018-.17.05-.22a.211.211 0 0 1 .145-.096c.131-.026.332.029.597.181l.03-.054c-.266-.154-.484-.219-.64-.188a.273.273 0 0 0-.184.122.468.468 0 0 0-.06.255h.062zm.567.27c-.111.025-.201.04-.274.043a.34.34 0 0 1-.166-.026c-.076-.038-.114-.122-.128-.29l-.062.006c.014.169.054.286.163.34a.401.401 0 0 0 .196.032c.078-.003.172-.019.285-.045l-.014-.06zm.562.473a.392.392 0 0 0 .084-.239.258.258 0 0 0-.093-.19c-.113-.097-.315-.123-.556-.044l.02.06c.23-.076.406-.046.496.03.044.039.069.089.07.146a.331.331 0 0 1-.071.201l.05.036zm.313.886c-.287 0-.446-.103-.496-.255-.053-.155.003-.378.183-.63l-.05-.037c-.185.258-.254.503-.193.687.063.188.257.297.556.297v-.062zm.272-.777c.028.074.062.16.087.25a.78.78 0 0 1 .035.257.257.257 0 0 1-.09.19c-.058.048-.153.08-.303.08v.062c.158 0 .269-.033.342-.093a.32.32 0 0 0 .113-.235.84.84 0 0 0-.037-.278c-.026-.093-.06-.182-.09-.256l-.057.023zm-.043-.117c.01.032.025.073.043.117l.058-.023a2.227 2.227 0 0 1-.042-.113l-.06.019zm.015-.409a.542.542 0 0 0-.035.257 1.233 1.233 0 0 0 .016.136l.002.009v.003l.031-.006.03-.006v-.003a.485.485 0 0 1 .011-.362l-.055-.028zm.232-.186a.287.287 0 0 0-.136.055.376.376 0 0 0-.096.131l.055.028a.319.319 0 0 1 .08-.11.225.225 0 0 1 .108-.042l-.011-.062zm.322.04.004-.031h-.002l-.007-.001a1.871 1.871 0 0 0-.106-.012.923.923 0 0 0-.211.004l.01.062a.86.86 0 0 1 .196-.003l.08.007.023.003.006.001h.001l.005-.03zm-.032-.258v.258h.063v-.258h-.063zm.734.024v-.45h-.063v.45h.063zm0 .554v-.413h-.063v.413h.063zm-.722-1.003v1.003h.063v-1.003h-.063z" fill="#000"/></svg>