<?xml version="1.0" encoding="utf-8"?>
<!-- Generator: Adobe Illustrator 27.0.0, SVG Export Plug-In . SVG Version: 6.00 Build 0)  -->
<svg version="1.1" id="Слой_1" xmlns="http://www.w3.org/2000/svg" xmlns:xlink="http://www.w3.org/1999/xlink" x="0px" y="0px"
	 viewBox="0 0 100 100" style="enable-background:new 0 0 100 100;" xml:space="preserve">
<style type="text/css">
	.st0{fill-rule:evenodd;clip-rule:evenodd;fill:#4C12A1;}
	.st1{fill:#221551;}
</style>
<g>
	<path class="st0" d="M50,0c27.6,0,50,22.4,50,50s-22.4,50-50,50S0,77.6,0,50c0-6.1,1.1-11.9,3-17.2C1.7,36.9,1,41.4,1,46
		c0,24.1,19.5,43.5,43.5,43.5S88.1,70,88.1,46S68.6,2.4,44.6,2.4c-9.2,0-17.8,2.9-24.8,7.8C28.1,3.8,38.6,0,50,0L50,0L50,0z"/>
	<g>
		<path class="st1" d="M29.7,40.1c-1.2-0.6-2.6-0.9-4.2-0.9c-1.7,0-3.3,0.3-4.6,1.1c-1,0.5-1.8,1.2-2.4,2.1v-2.9h-3.4v19.4h3.5v-10
			c0-1.4,0.3-2.6,0.8-3.5c0.5-1,1.2-1.7,2.2-2.2c0.9-0.5,2-0.7,3.3-0.7c1.6,0,2.9,0.5,3.9,1.4c0.9,1,1.4,2.4,1.4,4.2v10.8h3.5V47.6
			c0-1.9-0.3-3.5-1-4.7C31.8,41.7,30.9,40.7,29.7,40.1L29.7,40.1z"/>
		<path class="st1" d="M79.6,44c-0.9-1.5-2.1-2.7-3.6-3.5c-1.5-0.9-3.3-1.3-5.2-1.3s-3.7,0.4-5.2,1.3c-1.5,0.9-2.7,2-3.6,3.5
			c-0.9,1.5-1.3,3.2-1.3,5.1c0,1.9,0.4,3.6,1.3,5.1c0.9,1.5,2.1,2.7,3.6,3.5c1.5,0.9,3.2,1.3,5.2,1.3s3.7-0.4,5.2-1.3
			c1.5-0.9,2.7-2,3.6-3.5c0.9-1.5,1.3-3.2,1.3-5.1C80.9,47.2,80.4,45.4,79.6,44L79.6,44z M76.5,52.7c-0.6,1-1.4,1.8-2.3,2.4
			c-1,0.6-2.1,0.9-3.4,0.9c-1.3,0-2.4-0.3-3.3-0.9s-1.7-1.4-2.3-2.4c-0.6-1-0.9-2.2-0.9-3.6c0-1.4,0.3-2.6,0.9-3.6
			c0.6-1,1.4-1.8,2.3-2.4s2.1-0.9,3.3-0.9c1.3,0,2.4,0.3,3.4,0.9c1,0.6,1.8,1.4,2.3,2.4c0.6,1,0.9,2.2,0.9,3.6
			C77.3,50.5,77,51.7,76.5,52.7z"/>
		<path class="st1" d="M53,40.5c-1.4-0.8-3.1-1.3-5-1.3c-1.9,0-3.5,0.4-5,1.3c-1.5,0.9-2.7,2-3.5,3.5c-0.9,1.5-1.3,3.2-1.3,5.1
			c0,1.9,0.4,3.6,1.3,5.1c0.9,1.5,2.1,2.7,3.7,3.5c1.6,0.9,3.4,1.3,5.5,1.3c1.6,0,3.1-0.3,4.4-0.8c1.3-0.5,2.4-1.3,3.3-2.3l-1.9-2.3
			c-0.7,0.8-1.5,1.4-2.5,1.7c-1,0.4-2,0.6-3.1,0.6c-1.4,0-2.6-0.3-3.7-0.9c-1.1-0.6-1.9-1.4-2.5-2.4c-0.4-0.8-0.7-1.6-0.8-2.5h15.8
			c0-0.2,0-0.3,0-0.5c0-0.2,0-0.4,0-0.5c0-2-0.4-3.8-1.2-5.3C55.6,42.5,54.4,41.3,53,40.5L53,40.5z M44.7,43c1-0.5,2-0.8,3.3-0.8
			s2.3,0.3,3.3,0.8c1,0.5,1.7,1.3,2.2,2.3c0.4,0.7,0.7,1.6,0.7,2.5H41.8c0.1-0.9,0.3-1.7,0.8-2.4C43.1,44.3,43.8,43.5,44.7,43
			L44.7,43z"/>
	</g>
</g>
</svg>
