<svg width="28" height="28" fill="none" xmlns="http://www.w3.org/2000/svg"><path fill-rule="evenodd" clip-rule="evenodd" d="M13.665 0c.464.19.875.805 1.22 1.144l2.723 2.67c3.468 3.38 6.935 6.759 10.392 10.149-4.753 4.682-9.506 9.354-14.26 14.037l-2.127-2.087c-1.978-1.928-3.954-3.867-5.942-5.795h3.997l4.04 3.962h.054c3.414-3.369 6.828-6.727 10.241-10.096-3.435-3.358-6.86-6.716-10.294-10.064h-.055c-1.34 1.324-2.678 2.648-4.019 3.962H5.671c2.312-2.267 4.624-4.524 6.924-6.791.357-.36.713-.731 1.07-1.091z" fill="#3C2B6F"/><path fill-rule="evenodd" clip-rule="evenodd" d="M0 12.437h17.22V9.535H0v2.902zm0 6.017h17.22v-2.923H.02c0 .974-.01 1.949-.021 2.923z" fill="#B92135"/></svg>