<svg width="28" height="20" fill="none" xmlns="http://www.w3.org/2000/svg"><path d="M26.137 4.084c.156-.164.505.082 1.126.739.271.287.465.533.582.738.116.205.155.328.155.369l-.039.082L15.04 19.667c-.155.164-.504-.123-1.125-.779-.272-.287-.466-.533-.582-.738-.117-.205-.155-.328-.155-.37l.038-.081A4156.4 4156.4 0 0 0 26.137 4.084z" fill="#5AA8B4"/><path fill-rule="evenodd" clip-rule="evenodd" d="M7.63 19.667c-.156.164-.506-.122-1.127-.776-.272-.286-.466-.531-.583-.735-.117-.205-.155-.327-.155-.368l.038-.082L22.43.218c.156-.163.506.082 1.127.736.272.286.466.531.583.735.116.205.155.327.155.368l-.039.082A2305.047 2305.047 0 0 1 7.63 19.667zM1.75 14.021l-.356-.371-1.346-1.405c-.159-.165.079-.536.712-1.197.277-.29.515-.496.713-.62.198-.124.317-.165.356-.165l.08.041 1.346 1.405.356.371 1.702 1.776.04.083c0 .041-.04.165-.158.371-.12.207-.317.455-.594.744-.634.66-.99.909-1.149.743L1.75 14.021z" fill="#B0CA1F"/><path d="M5.456 10.156 5.1 9.784 3.753 8.38c-.158-.165.08-.537.713-1.198.277-.289.515-.495.713-.62.198-.123.317-.165.356-.165l.08.042L6.96 7.843l.357.372L9.019 9.99l.04.082c0 .041-.04.165-.159.372-.118.206-.316.454-.593.743-.634.661-.99.909-1.149.744l-1.702-1.776z" fill="#5AA8B4"/></svg>